PathFileType	4	(X/Y/Z)	D:\TRACE\v60_Jaco2_6-2-23\JustArmDRS_Motion3_3-platform.trc
DataRate	CameraRate	NumFrames	NumMarkers	Units	OrigDataRate	OrigDataStartFrame	OrigNumFrames
100.00	100.00	      30	5	mm	100.00	4376	      7000
Frame#	Time	Left_Front			Right_Front			Left_Aft			Right_Aft			Post			
		X1	Y1	Z1	X2	Y2	Z2	X3	Y3	Z3	X4	Y4	Z4	X5	Y5	Z5	

4376	43.750	-766.11499	2.21906	-652.28625	804.54626	0.92986	-629.62610	-697.26788	15.54473	481.75815	716.87335	14.62526	587.25128	29.64269	1296.71545	-979.82648	
4377	43.760	-766.32300	3.29830	-652.03455	804.04498	2.05814	-629.47516	-697.66797	14.74255	481.94867	716.66888	13.71289	587.49243	29.39657	1298.20447	-977.46460	
4378	43.770	-766.97699	4.42487	-651.74738	803.59387	3.03073	-629.34900	-698.20081	14.06956	482.27863	716.38495	12.93909	587.67230	29.14756	1299.70422	-975.24115	
4379	43.780	-767.16925	5.48434	-651.78674	803.31439	3.96406	-629.01422	-698.48346	13.47559	482.51105	716.09271	12.14035	588.11005	28.50971	1301.34998	-972.93719	
4380	43.790	-767.74213	6.45239	-651.58228	802.89679	4.98594	-628.80078	-698.87201	12.67926	482.79672	715.37329	11.10160	588.36896	28.20109	1302.71411	-970.61340	
4381	43.800	-768.11328	7.52201	-651.47858	802.49030	6.17198	-628.59900	-699.20441	12.07817	482.94220	715.20154	10.51468	588.51904	27.69123	1304.24304	-968.49628	
4382	43.810	-768.49139	8.70601	-651.14679	802.03168	7.03033	-628.39838	-699.63422	11.29353	483.28403	714.81128	9.52699	588.77209	27.66677	1305.76245	-966.04492	
4383	43.820	-768.84778	9.77429	-650.65747	801.76385	7.96786	-628.03107	-699.94287	10.73098	483.45480	714.48633	8.89229	588.98853	27.05089	1307.24280	-964.00128	
4384	43.830	-768.88416	10.45744	-650.40729	801.49164	9.03037	-627.81549	-700.28021	9.85228	483.80762	714.01971	7.94565	589.17218	26.62754	1308.79236	-961.66101	
4385	43.840	-769.07538	11.52353	-650.14154	801.22278	10.06775	-627.59888	-700.55267	9.10929	484.03595	713.64551	7.17664	589.41797	26.25590	1310.10608	-959.51593	
4386	43.850	-769.78693	12.50351	-649.70392	800.85889	11.00910	-627.33630	-701.01111	8.66342	484.28000	713.30316	6.28926	589.60876	25.95570	1311.73962	-957.39197	
4387	43.860	-770.34357	13.42665	-649.98517	800.52020	11.73935	-627.08374	-701.28015	8.06812	484.46799	713.12561	5.69246	589.90942	25.56546	1312.97021	-955.19592	
4388	43.870	-770.79352	14.61024	-649.66229	800.09100	12.92269	-626.93549	-701.69257	7.24083	484.62009	712.55072	4.99777	590.05420	25.08134	1314.30176	-953.37225	
4389	43.880	-770.93695	15.49630	-649.46759	799.93781	13.65813	-627.02820	-701.94086	6.57496	484.82126	712.00537	3.95508	590.19684	24.36749	1315.72778	-950.96118	
4390	43.890	-771.07916	16.13351	-649.34998	799.33752	14.71604	-626.49426	-702.24023	5.94128	485.06094	711.89734	3.28863	590.47015	24.23076	1316.76306	-949.18817	
4391	43.900	-771.34869	17.27082	-649.06696	799.04974	15.44900	-626.27380	-702.63385	5.51511	485.20901	711.69312	2.63896	590.73572	24.20615	1318.42590	-946.95020	
4392	43.910	-771.64850	18.16179	-648.76447	798.70270	16.33500	-626.07410	-702.91931	4.85479	485.48538	711.46661	1.82030	590.94769	23.94646	1319.47046	-945.26202	
4393	43.920	-772.02869	18.90430	-648.46753	798.37451	17.33666	-625.96686	-702.63129	4.06426	485.65631	710.89233	1.15684	591.25940	23.35504	1320.86328	-943.17401	
4394	43.930	-772.41364	19.71560	-648.13049	798.11658	18.12991	-625.70856	-703.43982	3.41047	485.92361	710.79620	0.45176	591.32758	22.93087	1321.91602	-941.44684	
4395	43.940	-772.50830	20.37502	-647.74524	797.81696	19.00112	-625.42889	-703.75256	2.95395	486.19858	710.49152	-0.26203	591.46600	22.58961	1323.48401	-939.37305	
4396	43.950	-773.05536	21.58644	-647.63892	797.49896	19.65292	-625.23212	-703.97266	2.53365	486.44601	710.14008	-1.08312	591.84308	22.38024	1324.41077	-937.61420	
4397	43.960	-773.08362	22.39723	-647.80615	797.15997	20.52001	-625.10272	-704.37872	1.90661	486.54517	709.99896	-1.48718	591.88000	22.11732	1325.64612	-935.63165	
4398	43.970	-773.16711	23.16058	-647.45435	797.03821	21.33763	-624.87848	-704.52106	1.39852	486.69260	709.79456	-2.19879	591.92725	22.02714	1326.79761	-934.10431	
4399	43.980	-773.47003	23.66119	-647.28174	796.84222	22.07605	-624.81860	-704.73932	0.83458	486.90625	709.30768	-3.18135	592.17450	21.68658	1328.11475	-932.07208	
4400	43.990	-773.88739	24.34823	-647.29559	796.46185	22.62016	-624.59070	-705.02740	0.32180	486.89630	709.42163	-3.59519	592.26556	21.42123	1328.95520	-930.62714	
4401	44.000	-773.74237	25.37605	-647.00671	796.27625	23.39831	-624.48553	-705.15491	-0.25946	486.97580	709.11328	-3.95961	592.49738	21.15321	1329.99438	-928.81732	
4402	44.010	-774.28809	26.31081	-646.95050	796.08820	24.16159	-624.30798	-705.34369	-0.70272	487.24176	708.96594	-4.43004	592.77148	21.09698	1330.88013	-927.24194	
4403	44.020	-774.74139	26.91243	-646.42621	795.75977	24.79832	-624.06824	-705.38336	-1.12224	487.47565	708.66327	-5.31329	592.98047	20.82407	1332.10364	-925.94556	
4404	44.030	-774.69342	27.38318	-646.45453	795.66748	25.46076	-623.93713	-705.50824	-1.64800	487.58109	708.36957	-5.97715	593.03064	20.71437	1333.03845	-924.29663	
4405	44.040	-774.55719	27.92148	-645.86383	795.52356	26.02254	-623.77362	-705.56677	-2.26534	487.84225	708.27252	-6.31553	593.07617	20.48737	1333.99561	-923.03394	
